<svg width="40" height="40" fill="none" xmlns="http://www.w3.org/2000/svg"><path d="M32.844 0H7.156A7.164 7.164 0 000 7.156v25.688A7.164 7.164 0 007.156 40h25.688A7.164 7.164 0 0040 32.844V7.156A7.164 7.164 0 0032.844 0zm4.812 32.844a4.818 4.818 0 01-4.812 4.812H7.156a4.818 4.818 0 01-4.812-4.812V7.156a4.818 4.818 0 014.812-4.812h25.688a4.818 4.818 0 014.812 4.812v25.688z" fill="#EDC588"/><path d="M33.807 8.787H15.958a3.688 3.688 0 00-3.49-2.51 3.688 3.688 0 00-3.49 2.51H6.192a1.172 1.172 0 000 2.343h2.786a3.688 3.688 0 003.49 2.51c1.621 0 3-1.052 3.49-2.51h17.849a1.172 1.172 0 100-2.343zm-21.339 2.51a1.34 1.34 0 01-1.338-1.338 1.34 1.34 0 012.677 0c0 .738-.6 1.338-1.339 1.338zm21.339 7.531H31.02a3.688 3.688 0 00-3.49-2.51c-1.62 0-3 1.053-3.49 2.51H6.192a1.172 1.172 0 000 2.344h17.849a3.688 3.688 0 003.49 2.51c1.62 0 3-1.053 3.49-2.51h2.786a1.172 1.172 0 100-2.344zm-6.276 2.51A1.34 1.34 0 0126.192 20a1.34 1.34 0 012.677 0c0 .738-.6 1.338-1.338 1.338zm6.276 7.532H20.979a3.688 3.688 0 00-3.49-2.51 3.688 3.688 0 00-3.49 2.51H6.192a1.172 1.172 0 000 2.343H14a3.688 3.688 0 003.49 2.51c1.621 0 3-1.052 3.49-2.51h12.828a1.172 1.172 0 100-2.343zm-16.318 2.51a1.34 1.34 0 01-1.338-1.338c0-.738.6-1.339 1.338-1.339a1.34 1.34 0 010 2.678z" fill="#EDC588"/></svg>