<svg width="15" height="15" fill="none" xmlns="http://www.w3.org/2000/svg"><path d="M.726 2.429L2.702.455a1.276 1.276 0 011.81 0l2.129 2.124a1.28 1.28 0 010 1.815L4.978 6.058A7.523 7.523 0 006.582 8.42a7.536 7.536 0 002.36 1.607l1.662-1.664a1.276 1.276 0 011.811 0l2.13 2.124a1.28 1.28 0 010 1.815l-1.974 1.974a2.222 2.222 0 01-1.919.618c-2.456-.404-4.894-1.713-6.863-3.68C1.822 9.245.516 6.807.108 4.349A2.212 2.212 0 01.726 2.43zm.697 1.698c.362 2.187 1.539 4.37 3.31 6.141 1.772 1.772 3.953 2.949 6.14 3.31a.873.873 0 00.757-.244l1.94-1.94-2.057-2.057-2.222 2.226-.017.017-.4-.148a8.929 8.929 0 01-5.302-5.303l-.148-.401 2.24-2.24L3.61 1.431 1.67 3.37a.87.87 0 00-.247.757z" fill="#fff"/></svg>