<svg width="15" height="15" fill="none" xmlns="http://www.w3.org/2000/svg"><path d="M7.5 8.438a2.344 2.344 0 110-4.688 2.344 2.344 0 010 4.688zm0-3.75a1.406 1.406 0 100 2.812 1.406 1.406 0 000-2.813z" fill="#EDC588"/><path d="M7.5 14.063L3.546 9.399c-.055-.07-.11-.14-.163-.211a5.104 5.104 0 01-1.04-3.094 5.156 5.156 0 1110.313 0 5.103 5.103 0 01-1.038 3.092v.002s-.141.184-.162.209L7.5 14.062zm-3.37-5.44c.002 0 .11.144.135.175L7.5 12.613l3.24-3.82.13-.172c.552-.727.85-1.615.849-2.527a4.219 4.219 0 00-8.438 0 4.174 4.174 0 00.85 2.529z" fill="#EDC588"/></svg>