<svg width="143" height="45" fill="none" xmlns="http://www.w3.org/2000/svg"><path d="M11.46 1.13c3.02 0 5.47 1.04 7.35 3.12 1.9 2.06 2.85 4.75 2.85 8.07 0 3.32-.95 6.02-2.85 8.1-1.9 2.06-4.37 3.09-7.41 3.09-3.06 0-5.54-1.03-7.44-3.09-1.88-2.06-2.82-4.76-2.82-8.1 0-3.24.92-5.91 2.76-8.01 1.86-2.12 4.38-3.18 7.56-3.18zm-.06 3.15c-1.96 0-3.53.73-4.71 2.19-1.18 1.44-1.77 3.37-1.77 5.79 0 2.48.58 4.45 1.74 5.91 1.18 1.46 2.78 2.19 4.8 2.19 1.94 0 3.49-.73 4.65-2.19 1.18-1.48 1.77-3.44 1.77-5.88s-.59-4.38-1.77-5.82c-1.16-1.46-2.73-2.19-4.71-2.19zm13.613-2.64h10.11c2.12 0 3.85.48 5.19 1.44 1.34.94 2.01 2.44 2.01 4.5 0 1.28-.31 2.38-.93 3.3-.62.9-1.49 1.55-2.61 1.95.52.12.97.3 1.35.54.38.24.67.5.87.78.22.28.4.64.54 1.08.14.44.23.83.27 1.17.06.32.11.75.15 1.29.02.14.04.41.06.81.04.4.06.67.06.81.02.12.04.34.06.66.04.32.07.55.09.69.02.12.05.31.09.57.06.24.11.43.15.57l.15.45a2.057 2.057 0 00.48.75h-4.02c-.06-.08-.12-.17-.18-.27l-.12-.36c-.04-.14-.07-.26-.09-.36-.02-.12-.05-.27-.09-.45-.02-.2-.04-.36-.06-.48 0-.12-.01-.3-.03-.54-.02-.24-.04-.42-.06-.54 0-.12-.01-.33-.03-.63-.02-.3-.03-.51-.03-.63-.1-1.74-.47-2.93-1.11-3.57-.62-.66-1.81-.99-3.57-.99h-4.98V23h-3.72V1.64zm3.72 3.06v6.69h4.95c.72 0 1.33-.04 1.83-.12.5-.08 1-.22 1.5-.42.52-.22.91-.57 1.17-1.05.28-.48.42-1.09.42-1.83 0-.68-.12-1.24-.36-1.68-.24-.46-.59-.8-1.05-1.02-.44-.22-.9-.37-1.38-.45-.46-.08-1.01-.12-1.65-.12h-5.43zm21.243-3.06V23h-3.78V1.64h3.78zm23.29 9.93V23h-2.4l-.57-2.55c-1.7 2.04-3.92 3.06-6.66 3.06-3 0-5.44-1.02-7.32-3.06-1.86-2.04-2.79-4.7-2.79-7.98 0-3.22.94-5.9 2.82-8.04 1.88-2.16 4.42-3.24 7.62-3.24 2.32 0 4.34.65 6.06 1.95 1.74 1.3 2.73 3.07 2.97 5.31h-3.63c-.22-1.28-.82-2.28-1.8-3-.96-.74-2.17-1.11-3.63-1.11-2.06 0-3.68.72-4.86 2.16-1.18 1.44-1.77 3.41-1.77 5.91 0 2.52.59 4.5 1.77 5.94 1.2 1.42 2.86 2.13 4.98 2.13 1.86 0 3.29-.58 4.29-1.74 1.02-1.16 1.53-2.59 1.53-4.29h-5.76v-2.88h9.15zm7.823-9.93V23h-3.78V1.64h3.78zm21.85 0V23h-3.87l-9.96-15.72V23h-3.54V1.64h3.93l9.84 15.75V1.64h3.6zm14.09-.03l8.25 21.39h-4.02l-2.04-5.67h-8.46l-2.1 5.67h-3.87l8.25-21.39h3.99zm1.2 12.9l-3.18-9-3.33 9h6.51zm23.67 5.25V23h-14.64V1.64h3.78v18.12h10.86zM90.12 30.32h1.905l1.95 8.13 2.19-8.13h1.905l2.115 8.13 2.01-8.13h1.905L101.145 41H99.24l-2.16-8.205L94.875 41H92.94l-2.82-10.68zm19.664-.015L113.909 41h-2.01l-1.02-2.835h-4.23L105.599 41h-1.935l4.125-10.695h1.995zm.6 6.45l-1.59-4.5-1.665 4.5h3.255zm10.818-6.435v1.62h-3.405V41h-1.875v-9.06h-3.405v-1.62h8.685zm10.377 6.615c-.1 1.31-.57 2.36-1.41 3.15-.83.78-1.91 1.17-3.24 1.17-1.51 0-2.72-.51-3.63-1.53-.91-1.02-1.365-2.375-1.365-4.065 0-1.02.195-1.945.585-2.775.39-.84.975-1.515 1.755-2.025.78-.52 1.695-.78 2.745-.78 1.13 0 2.115.315 2.955.945.84.62 1.345 1.52 1.515 2.7h-1.86c-.13-.64-.43-1.14-.9-1.5-.47-.37-1.05-.555-1.74-.555-.71 0-1.315.2-1.815.6-.49.4-.84.895-1.05 1.485-.2.58-.3 1.215-.3 1.905 0 .52.06 1.01.18 1.47.12.46.3.885.54 1.275.24.38.565.685.975.915.42.23.905.345 1.455.345 1.59 0 2.5-.91 2.73-2.73h1.875zm10.285-6.615V41h-1.875v-4.8h-4.89V41h-1.875V30.32h1.875v4.245h4.89V30.32h1.875z" fill="#fff"/></svg>